<svg xmlns="http://www.w3.org/2000/svg" xmlns:xlink="http://www.w3.org/1999/xlink" viewBox="0 0 354.68 282.09"><defs><style>.cls-1,.cls-3,.cls-6,.cls-9{fill:none;}.cls-2{clip-path:url(#clip-path);}.cls-3{stroke:#8ecfd2;stroke-width:3px;}.cls-4{opacity:0.4;}.cls-5{clip-path:url(#clip-path-3);}.cls-6,.cls-9{stroke:#fff;}.cls-6{stroke-width:2px;}.cls-7{fill:#f4982b;}.cls-8{fill:#e94e1f;}.cls-9{stroke-width:5px;}.cls-10,.cls-16{font-size:33.96px;font-family:FuturaStd-Bold, Futura Std;font-weight:700;}.cls-10,.cls-13{fill:#fff;}.cls-10,.cls-17{letter-spacing:-0.03em;}.cls-11{letter-spacing:-0.03em;}.cls-12{letter-spacing:0em;}.cls-13{font-size:30.6px;font-family:FuturaStd-Medium, Futura Std;font-weight:500;}.cls-14{letter-spacing:-0.03em;}.cls-15{letter-spacing:-0.11em;}.cls-16{fill:#dedc00;}.cls-18{letter-spacing:-0.03em;}.cls-19{letter-spacing:-0.09em;}.cls-20{letter-spacing:-0.03em;}</style><clipPath id="clip-path" transform="translate(-89.38 0)"><rect class="cls-1" width="450.42" height="282.1"/></clipPath><clipPath id="clip-path-3" transform="translate(-89.38 0)"><rect class="cls-1" x="46.13" y="129.1" width="441.17" height="180.24"/></clipPath></defs><g id="Camada_2" data-name="Camada 2"><g id="Camada_1-2" data-name="Camada 1"><g class="cls-2"><g class="cls-2"><path class="cls-3" d="M368.43,46.75c0,.94.77.7,1.06.48l15.74-11.76a.46.46,0,0,0,0-.79L369.49,22.92c-.29-.22-1.06-.46-1.06.48Z" transform="translate(-89.38 0)"/><path class="cls-3" d="M397,46.75c0,.94.77.7,1.06.48l15.75-11.76a.47.47,0,0,0,0-.79L398,22.92c-.29-.22-1.06-.46-1.06.48Z" transform="translate(-89.38 0)"/><path class="cls-3" d="M425.54,46.75c0,.94.76.7,1.06.48l15.74-11.76a.47.47,0,0,0,0-.79L426.6,22.92c-.3-.22-1.06-.46-1.06.48Z" transform="translate(-89.38 0)"/><g class="cls-4"><g class="cls-5"><path class="cls-6" d="M201.4,198.67l-28.6-28.6a2.47,2.47,0,0,0-3.5,0l-23.05,23.05-23-23.05a2.47,2.47,0,0,0-3.5,0l-28.6,28.6a2.47,2.47,0,0,0,0,3.5l23.05,23.05L91.1,248.27a2.47,2.47,0,0,0,0,3.5l28.6,28.6a2.47,2.47,0,0,0,3.5,0l23-23.05,23.05,23.05a2.47,2.47,0,0,0,3.5,0l28.6-28.6a2.47,2.47,0,0,0,0-3.5l-23.05-23.05,23.05-23.05A2.47,2.47,0,0,0,201.4,198.67Z" transform="translate(-89.38 0)"/><path class="cls-6" d="M322.2,198.67l-28.59-28.6a2.48,2.48,0,0,0-3.51,0l-23.05,23.05L244,170.07a2.47,2.47,0,0,0-3.5,0l-28.6,28.6a2.49,2.49,0,0,0,0,3.5l23,23.05-23,23.05a2.49,2.49,0,0,0,0,3.5l28.6,28.6a2.47,2.47,0,0,0,3.5,0l23.05-23.05,23.05,23.05a2.48,2.48,0,0,0,3.51,0l28.59-28.6a2.47,2.47,0,0,0,0-3.5l-23.05-23.05,23.05-23.05A2.47,2.47,0,0,0,322.2,198.67Z" transform="translate(-89.38 0)"/><path class="cls-6" d="M442.33,198.67l-28.59-28.6a2.48,2.48,0,0,0-3.51,0l-23.05,23.05-23.05-23.05a2.47,2.47,0,0,0-3.5,0L332,198.67a2.49,2.49,0,0,0,0,3.5l23.05,23.05L332,248.27a2.49,2.49,0,0,0,0,3.5l28.6,28.6a2.47,2.47,0,0,0,3.5,0l23.05-23.05,23.05,23.05a2.48,2.48,0,0,0,3.51,0l28.59-28.6a2.47,2.47,0,0,0,0-3.5l-23.05-23.05,23.05-23.05A2.47,2.47,0,0,0,442.33,198.67Z" transform="translate(-89.38 0)"/></g></g><path class="cls-7" d="M91.5,0V138.81C91.5,214.59,151.77,276,226.12,276s134.62-61.43,134.62-137.21V0Z" transform="translate(-89.38 0)"/><path class="cls-8" d="M226.12,260.91A120.19,120.19,0,1,0,105.93,140.72,120.19,120.19,0,0,0,226.12,260.91" transform="translate(-89.38 0)"/><circle class="cls-9" cx="136.75" cy="140.72" r="120.19"/></g><text class="cls-10" transform="translate(91.23 99.37)">A<tspan class="cls-11" x="25.54" y="0">QU</tspan><tspan class="cls-12" x="80.05" y="0">I</tspan></text><text class="cls-13" transform="translate(53.66 136.12)"><tspan class="cls-14">ES</tspan><tspan class="cls-15" x="30.6" y="0">T</tspan><tspan class="cls-14" x="41.22" y="0">ÃO SUA</tspan><tspan x="150.02" y="0">S</tspan></text><text class="cls-16" transform="translate(34.96 170.55)"><tspan class="cls-17">RES</tspan><tspan class="cls-11" x="59.74" y="0">PO</tspan><tspan class="cls-18" x="110.28" y="0">S</tspan><tspan class="cls-19" x="130.22" y="0">T</tspan><tspan class="cls-20" x="145.3" y="0">AS</tspan><tspan x="190.78" y="0">!</tspan></text></g></g></g></svg>